<svg width="25" height="24" viewBox="0 0 25 24" fill="none" xmlns="http://www.w3.org/2000/svg">
<path d="M5.0791 23.4824C4.83561 23.2943 4.6862 23.048 4.63086 22.7437C4.58105 22.4448 4.62533 22.0907 4.76367 21.6812L6.97168 15.0986L1.32715 11.0479C0.978516 10.7988 0.732259 10.536 0.588379 10.2593C0.450033 9.98258 0.430664 9.69482 0.530273 9.396C0.624349 9.10824 0.806966 8.89242 1.07812 8.74854C1.35482 8.60465 1.70898 8.53548 2.14062 8.54102L9.07178 8.58252L11.1802 1.9668C11.313 1.55176 11.4873 1.23633 11.7031 1.02051C11.9245 0.804688 12.1901 0.696777 12.5 0.696777C12.8099 0.696777 13.0728 0.804688 13.2886 1.02051C13.5044 1.23633 13.6787 1.55176 13.8115 1.9668L15.9199 8.58252L22.8428 8.54102C23.2799 8.53548 23.6341 8.60465 23.9053 8.74854C24.1764 8.89242 24.3618 9.111 24.4614 9.4043C24.561 9.69759 24.5417 9.98258 24.4033 10.2593C24.265 10.536 24.0187 10.7988 23.6646 11.0479L18.02 15.0986L20.228 21.6812C20.3664 22.0907 20.4079 22.4448 20.3525 22.7437C20.3027 23.048 20.1561 23.2943 19.9126 23.4824C19.6636 23.665 19.3841 23.7314 19.0742 23.6816C18.7699 23.6374 18.4406 23.4852 18.0864 23.2251L12.5 19.1162L6.89697 23.2251C6.54281 23.4852 6.21354 23.6374 5.90918 23.6816C5.60482 23.7314 5.32812 23.665 5.0791 23.4824Z" fill="#007AFF"/>
</svg>
