<svg width="32" height="32" viewBox="0 0 32 32" fill="none" xmlns="http://www.w3.org/2000/svg">
<path fill-rule="evenodd" clip-rule="evenodd" d="M3.80021 12.1116C4.48848 5.9171 9.72436 1.23077 15.9569 1.23077C22.1895 1.23077 27.4254 5.91711 28.1136 12.1116L29.336 23.1128C29.498 24.5709 28.3566 25.8462 26.8895 25.8462H22.0082C21.9315 26.2565 21.8122 26.6588 21.6517 27.0463C21.3486 27.778 20.9044 28.4429 20.3444 29.0029C19.7844 29.5629 19.1196 30.0071 18.3879 30.3102C17.6562 30.6132 16.872 30.7692 16.08 30.7692C15.288 30.7692 14.5038 30.6132 13.7721 30.3102C13.0404 30.0071 12.3756 29.5629 11.8156 29.0029C11.2556 28.4429 10.8114 27.778 10.5083 27.0463C10.3478 26.6588 10.2285 26.2565 10.1518 25.8462H5.02433C3.55723 25.8462 2.41583 24.5709 2.57785 23.1128L3.80021 12.1116ZM12.7297 25.9692C12.7463 26.0146 12.7639 26.0596 12.7825 26.1044C12.9618 26.5374 13.2247 26.9309 13.5562 27.2623C13.8876 27.5937 14.2811 27.8566 14.7141 28.036C15.1472 28.2154 15.6113 28.3077 16.08 28.3077C16.5487 28.3077 17.0128 28.2154 17.4459 28.036C17.8789 27.8566 18.2724 27.5937 18.6038 27.2623C18.9353 26.9309 19.1982 26.5374 19.3775 26.1044C19.3961 26.0596 19.4137 26.0146 19.4303 25.9692H12.7297ZM15.9569 3.69231C10.9786 3.69231 6.79645 7.43554 6.24669 12.3834L5.02433 23.3846H26.8895L25.6672 12.3834C25.1174 7.43555 20.9352 3.69231 15.9569 3.69231Z" fill="black"/>
</svg>
