<svg width="26" height="26" viewBox="0 0 26 26" fill="none" xmlns="http://www.w3.org/2000/svg">
<rect x="1" y="1" width="24" height="24" rx="4" fill="white"/>
<rect x="1" y="1" width="24" height="24" rx="4" stroke="#474747"/>
<path fill-rule="evenodd" clip-rule="evenodd" d="M7.39274 9.80385C7.73047 9.76586 8.03507 10.0088 8.07306 10.3466L8.93479 18.0064C9.03985 18.9402 9.82963 19.6461 10.7694 19.6461H15.2306C16.1704 19.6461 16.9601 18.9402 17.0652 18.0064L17.9269 10.3466C17.9649 10.0088 18.2695 9.76586 18.6073 9.80385C18.945 9.84185 19.188 10.1464 19.15 10.4842L18.2883 18.144C18.1132 19.7004 16.7969 20.8769 15.2306 20.8769H10.7694C9.20314 20.8769 7.88683 19.7004 7.71173 18.144L6.85001 10.4842C6.81201 10.1464 7.055 9.84185 7.39274 9.80385Z" fill="#474747"/>
<path fill-rule="evenodd" clip-rule="evenodd" d="M10.9549 11.0448C11.2935 11.0152 11.592 11.2657 11.6216 11.6042L12.1579 17.7347C12.1876 18.0732 11.9371 18.3717 11.5985 18.4013C11.26 18.431 10.9615 18.1805 10.9319 17.8419L10.3955 11.7115C10.3659 11.3729 10.6164 11.0745 10.9549 11.0448Z" fill="#474747"/>
<path fill-rule="evenodd" clip-rule="evenodd" d="M14.5243 18.4013C14.1857 18.3717 13.9353 18.0732 13.9649 17.7346L14.5012 11.6042C14.5308 11.2656 14.8293 11.0152 15.1679 11.0448C15.5065 11.0744 15.7569 11.3729 15.7273 11.7115L15.191 17.8419C15.1613 18.1805 14.8629 18.4309 14.5243 18.4013Z" fill="#474747"/>
<path fill-rule="evenodd" clip-rule="evenodd" d="M5.24609 8.56923C5.24609 8.22936 5.52161 7.95385 5.86148 7.95385H20.1384C20.4783 7.95385 20.7538 8.22936 20.7538 8.56923C20.7538 8.9091 20.4783 9.18462 20.1384 9.18462H5.86148C5.52161 9.18462 5.24609 8.9091 5.24609 8.56923Z" fill="#474747"/>
<path fill-rule="evenodd" clip-rule="evenodd" d="M9.67686 7.09231C9.67686 6.07271 10.5034 5.24615 11.523 5.24615H14.5999C15.6195 5.24615 16.4461 6.07271 16.4461 7.09231V8.07692H15.2153V7.09231C15.2153 6.75244 14.9398 6.47692 14.5999 6.47692H11.523C11.1831 6.47692 10.9076 6.75244 10.9076 7.09231V8.07692H9.67686V7.09231Z" fill="#474747"/>
</svg>
