<svg width="13" height="14" viewBox="0 0 13 14" fill="none" xmlns="http://www.w3.org/2000/svg">
<path d="M12.2306 0.204374C12.1857 0.169298 12.1333 0.144932 12.0776 0.133127C12.0218 0.121322 11.9641 0.12239 11.9087 0.136249L3.90875 2.13625C3.82768 2.15659 3.75573 2.20343 3.70432 2.26933C3.65291 2.33523 3.625 2.41642 3.625 2.5V9.63187C3.25577 9.31852 2.79059 9.14068 2.30649 9.12781C1.82239 9.11494 1.34841 9.2678 0.963051 9.56109C0.577691 9.85437 0.304066 10.2705 0.18749 10.7405C0.0709144 11.2106 0.118381 11.7063 0.322029 12.1457C0.525677 12.585 0.87329 12.9417 1.3073 13.1565C1.74131 13.3713 2.23568 13.4315 2.70855 13.327C3.18141 13.2225 3.60439 12.9596 3.90746 12.5819C4.21052 12.2042 4.37547 11.7343 4.375 11.25V5.7925L11.625 3.98V7.63187C11.2558 7.31852 10.7906 7.14068 10.3065 7.12781C9.82239 7.11494 9.34841 7.2678 8.96305 7.56109C8.57769 7.85438 8.30407 8.27049 8.18749 8.74052C8.07091 9.21055 8.11838 9.7063 8.32203 10.1457C8.52568 10.585 8.87329 10.9417 9.3073 11.1565C9.74131 11.3713 10.2357 11.4315 10.7085 11.327C11.1814 11.2225 11.6044 10.9596 11.9075 10.5819C12.2105 10.2042 12.3755 9.73427 12.375 9.25V0.499999C12.375 0.44299 12.362 0.386734 12.337 0.335508C12.3119 0.284282 12.2756 0.239434 12.2306 0.204374ZM2.25 12.625C1.97805 12.625 1.71221 12.5444 1.48609 12.3933C1.25997 12.2422 1.08374 12.0274 0.979666 11.7762C0.875596 11.5249 0.848366 11.2485 0.901421 10.9817C0.954476 10.715 1.08543 10.47 1.27773 10.2777C1.47003 10.0854 1.71503 9.95447 1.98175 9.90142C2.24848 9.84836 2.52494 9.87559 2.77619 9.97966C3.02744 10.0837 3.24218 10.26 3.39327 10.4861C3.54436 10.7122 3.625 10.978 3.625 11.25C3.625 11.6147 3.48013 11.9644 3.22227 12.2223C2.96441 12.4801 2.61467 12.625 2.25 12.625ZM4.375 5.02V2.7925L11.625 0.979999V3.2075L4.375 5.02ZM10.25 10.625C9.97805 10.625 9.71221 10.5444 9.48609 10.3933C9.25997 10.2422 9.08374 10.0274 8.97967 9.77619C8.8756 9.52494 8.84837 9.24847 8.90142 8.98175C8.95448 8.71502 9.08543 8.47002 9.27773 8.27773C9.47003 8.08543 9.71503 7.95447 9.98175 7.90142C10.2485 7.84836 10.5249 7.87559 10.7762 7.97966C11.0274 8.08373 11.2422 8.25997 11.3933 8.48609C11.5444 8.71221 11.625 8.97805 11.625 9.25C11.625 9.61467 11.4801 9.96441 11.2223 10.2223C10.9644 10.4801 10.6147 10.625 10.25 10.625Z" fill="#C6C6C6"/>
</svg>
