<svg width="17" height="16" viewBox="0 0 17 16" fill="none" xmlns="http://www.w3.org/2000/svg">
<path fill-rule="evenodd" clip-rule="evenodd" d="M8.49994 0.246155C8.83981 0.246155 9.11532 0.521672 9.11532 0.861539L9.11532 15.1385C9.11532 15.4783 8.83981 15.7538 8.49994 15.7538C8.16007 15.7538 7.88455 15.4783 7.88455 15.1385L7.88455 0.861539C7.88455 0.521672 8.16007 0.246155 8.49994 0.246155Z" fill="white"/>
<path fill-rule="evenodd" clip-rule="evenodd" d="M16.2538 8C16.2538 8.33987 15.9783 8.61539 15.6384 8.61539H1.36148C1.02161 8.61539 0.746094 8.33987 0.746094 8C0.746094 7.66013 1.02161 7.38462 1.36148 7.38462H15.6384C15.9783 7.38462 16.2538 7.66013 16.2538 8Z" fill="white"/>
</svg>
