<svg width="32" height="32" viewBox="0 0 32 32" fill="none" xmlns="http://www.w3.org/2000/svg">
<path fill-rule="evenodd" clip-rule="evenodd" d="M16.1229 13.0462C14.5595 13.0462 13.2921 14.3135 13.2921 15.8769C13.2921 17.4403 14.5595 18.7077 16.1229 18.7077C17.6863 18.7077 18.9537 17.4403 18.9537 15.8769C18.9537 14.3135 17.6863 13.0462 16.1229 13.0462ZM10.8306 15.8769C10.8306 12.9541 13.2 10.5846 16.1229 10.5846C19.0458 10.5846 21.4152 12.9541 21.4152 15.8769C21.4152 18.7998 19.0458 21.1692 16.1229 21.1692C13.2 21.1692 10.8306 18.7998 10.8306 15.8769Z" fill="black"/>
<path fill-rule="evenodd" clip-rule="evenodd" d="M15.1807 2.9876L14.5742 4.72533C14.301 5.50813 13.6703 6.05575 12.957 6.29091C12.5427 6.42752 12.1378 6.59136 11.745 6.78136C11.068 7.10889 10.2326 7.15363 9.49122 6.77962L7.84833 5.95079C7.30755 6.40215 6.80432 6.8967 6.34362 7.42956L7.14335 9.0881C7.50383 9.83569 7.44432 10.6697 7.10524 11.3406C6.90954 11.7277 6.73836 12.1296 6.59361 12.5438C6.34603 13.2522 5.78798 13.8723 5.00168 14.1319L3.25222 14.7094C3.18918 15.4109 3.18301 16.1163 3.23377 16.8188L4.97256 17.4257C5.75415 17.6985 6.30175 18.3279 6.53722 19.0407C6.67444 19.456 6.8387 19.862 7.02896 20.2558C7.35593 20.9328 7.39976 21.7672 7.02634 22.5074L6.19703 24.1513C6.64838 24.6921 7.14293 25.1953 7.67578 25.656L9.33519 24.8559C10.0816 24.4959 10.9148 24.5545 11.5856 24.8932C11.9759 25.0902 12.3787 25.2615 12.7914 25.406C13.4993 25.6539 14.1186 26.2118 14.3778 26.9973L14.9555 28.7475C15.6575 28.8107 16.3635 28.8168 17.0664 28.766L17.6714 27.0293C17.9444 26.2459 18.5753 25.6977 19.289 25.4624C19.7032 25.3258 20.108 25.162 20.5006 24.972C21.1776 24.6445 22.0131 24.5998 22.7544 24.9738L24.3973 25.8026C24.9381 25.3513 25.4413 24.8567 25.902 24.3238L25.1019 22.6644C24.7419 21.9179 24.8005 21.0848 25.1392 20.414C25.3362 20.0237 25.5075 19.6209 25.652 19.2082C25.8999 18.5002 26.4578 17.881 27.2433 17.6217L28.9935 17.044C29.0566 16.342 29.0628 15.6361 29.012 14.9331L27.2755 14.3281C26.4918 14.0551 25.9437 13.4239 25.7084 12.7103C25.5711 12.2939 25.4069 11.8893 25.2179 11.4987C24.8903 10.8216 24.8458 9.98633 25.2197 9.24524L26.0488 7.60178C25.5977 7.06102 25.103 6.55763 24.5702 6.09724L22.9114 6.8971C22.1638 7.25759 21.3297 7.19808 20.6589 6.85898C20.2717 6.66329 19.8699 6.49211 19.4557 6.34737C18.7473 6.09978 18.1271 5.54173 17.8676 4.75543L17.2901 3.00594C16.9057 2.9715 16.5161 2.95385 16.1228 2.95385L16.1224 2.95385C15.8081 2.95375 15.494 2.96502 15.1807 2.9876ZM3.2098 16.8104C3.2098 16.8104 3.20989 16.8104 3.21006 16.8105L3.2098 16.8104ZM6.33264 7.40657C6.33264 7.40655 6.33267 7.40665 6.33273 7.40686L6.33264 7.40657ZM15.189 2.96387C15.1891 2.96367 15.1892 2.96359 15.1892 2.9636L15.189 2.96387ZM16.1228 0.49231C15.7275 0.492198 15.3324 0.507206 14.9384 0.537277C13.9496 0.612749 13.1666 1.28839 12.8646 2.15376L12.2505 3.91308C12.2497 3.91435 12.2476 3.91723 12.243 3.92148C12.2331 3.93088 12.2143 3.94391 12.1863 3.95315C11.6689 4.12371 11.1634 4.32827 10.6731 4.5655C10.6465 4.57837 10.6239 4.58206 10.6101 4.58224C10.6039 4.58232 10.6004 4.58174 10.5989 4.58139L8.93554 3.74223C8.11759 3.32957 7.08537 3.38698 6.32153 4.01903C5.64235 4.58103 5.01245 5.20007 4.43873 5.86937C3.79383 6.62173 3.71821 7.65217 4.11593 8.47699L4.9256 10.1562C4.92592 10.1576 4.92644 10.1612 4.92625 10.1674C4.92583 10.1812 4.92174 10.2037 4.90839 10.2301C4.66403 10.7136 4.45044 11.2151 4.2699 11.7317C4.26022 11.7593 4.24695 11.7778 4.23745 11.7875C4.23315 11.7919 4.23026 11.794 4.22898 11.7948L2.45785 12.3794C1.58795 12.6665 0.899403 13.4373 0.806546 14.424C0.72402 15.3009 0.716304 16.1832 0.783479 17.0614C0.859101 18.0501 1.53465 18.833 2.39994 19.135L4.1603 19.7494C4.16156 19.7502 4.1644 19.7523 4.16861 19.7568C4.17789 19.7666 4.19078 19.7851 4.19992 19.8128C4.37084 20.3302 4.57545 20.8358 4.81244 21.3265C4.82515 21.3528 4.82878 21.3751 4.82895 21.3887C4.82902 21.3948 4.82845 21.3983 4.8281 21.3998L3.98846 23.0641C3.57582 23.882 3.63322 24.9142 4.26526 25.6781C4.82725 26.3573 5.44628 26.9872 6.11557 27.5609C6.86794 28.2058 7.89841 28.2814 8.72323 27.8837L10.4033 27.0736C10.4047 27.0733 10.4082 27.0728 10.4144 27.0729C10.4279 27.0734 10.4502 27.0774 10.4762 27.0905C10.9624 27.336 11.464 27.5494 11.978 27.7293C12.0055 27.7389 12.0238 27.7521 12.0335 27.7615C12.0379 27.7658 12.0399 27.7687 12.0407 27.77L12.6256 29.5419C12.9127 30.4117 13.6833 31.1003 14.67 31.1932C15.5475 31.2758 16.4304 31.2836 17.3092 31.2163C18.2983 31.1406 19.0814 30.4644 19.383 29.5985L19.9956 27.8402C19.9964 27.8389 19.9985 27.8361 20.0031 27.8318C20.013 27.8224 20.0318 27.8093 20.0599 27.8001C20.577 27.6296 21.0824 27.4251 21.5726 27.1879C21.5992 27.175 21.6218 27.1713 21.6355 27.1712C21.6417 27.1711 21.6453 27.1717 21.6468 27.172L23.3101 28.0112C24.1281 28.4238 25.1603 28.3664 25.9241 27.7344C26.6033 27.1724 27.2332 26.5533 27.8069 25.884C28.4518 25.1317 28.5274 24.1012 28.1297 23.2764L27.3196 21.5963C27.3193 21.5948 27.3188 21.5913 27.319 21.5852C27.3194 21.5717 27.3234 21.5494 27.3365 21.5234C27.582 21.0372 27.7954 20.5355 27.9753 20.0215C27.9849 19.994 27.9981 19.9758 28.0076 19.9661C28.011 19.9626 28.0135 19.9606 28.015 19.9595C28.0154 19.9592 28.0157 19.959 28.016 19.9589L29.7879 19.374C30.6577 19.0869 31.3462 18.3162 31.4391 17.3296C31.5218 16.4521 31.5295 15.5691 31.4623 14.6903C31.3866 13.7012 30.7104 12.9181 29.8445 12.6165L28.0864 12.004C28.0851 12.0032 28.0822 12.001 28.0779 11.9965C28.0685 11.9864 28.0554 11.9676 28.0461 11.9394C27.8745 11.4191 27.6695 10.9139 27.4337 10.4267C27.4209 10.4002 27.4173 10.3777 27.4171 10.3641C27.417 10.3579 27.4176 10.3544 27.4179 10.3529L28.2574 8.68886C28.6698 7.87143 28.6129 6.83967 27.9812 6.07581C27.4191 5.39605 26.7994 4.76548 26.1296 4.19175C25.3773 3.5472 24.3472 3.47199 23.5228 3.8695L21.8433 4.67936C21.8418 4.67968 21.8383 4.6802 21.832 4.68001C21.8183 4.67959 21.7957 4.67549 21.7693 4.66215C21.2859 4.41779 20.7844 4.2042 20.2678 4.02366C20.2402 4.01398 20.2217 4.00071 20.212 3.99121C20.2076 3.98691 20.2055 3.98402 20.2047 3.98274L19.62 2.2113C19.333 1.34178 18.5626 0.652949 17.5756 0.560262C17.0972 0.515333 16.6123 0.492322 16.1232 0.49231M21.8441 4.67912C21.8442 4.67913 21.844 4.67919 21.8436 4.67929L21.8441 4.67912ZM27.4182 10.3521C27.4182 10.352 27.4182 10.3522 27.418 10.3526L27.4182 10.3521Z" fill="black"/>
</svg>
