<svg width="26" height="24" viewBox="0 0 26 24" fill="none" xmlns="http://www.w3.org/2000/svg">
<path d="M5.5791 23.4824C5.33561 23.2943 5.1862 23.048 5.13086 22.7437C5.08105 22.4448 5.12533 22.0907 5.26367 21.6812L7.47168 15.0986L1.82715 11.0479C1.47852 10.7988 1.23226 10.536 1.08838 10.2593C0.950033 9.98258 0.930664 9.69482 1.03027 9.396C1.12435 9.10824 1.30697 8.89242 1.57812 8.74854C1.85482 8.60465 2.20898 8.53548 2.64062 8.54102L9.57178 8.58252L11.6802 1.9668C11.813 1.55176 11.9873 1.23633 12.2031 1.02051C12.4245 0.804688 12.6901 0.696777 13 0.696777C13.3099 0.696777 13.5728 0.804688 13.7886 1.02051C14.0044 1.23633 14.1787 1.55176 14.3115 1.9668L16.4199 8.58252L23.3428 8.54102C23.7799 8.53548 24.1341 8.60465 24.4053 8.74854C24.6764 8.89242 24.8618 9.111 24.9614 9.4043C25.061 9.69759 25.0417 9.98258 24.9033 10.2593C24.765 10.536 24.5187 10.7988 24.1646 11.0479L18.52 15.0986L20.728 21.6812C20.8664 22.0907 20.9079 22.4448 20.8525 22.7437C20.8027 23.048 20.6561 23.2943 20.4126 23.4824C20.1636 23.665 19.8841 23.7314 19.5742 23.6816C19.2699 23.6374 18.9406 23.4852 18.5864 23.2251L13 19.1162L7.39697 23.2251C7.04281 23.4852 6.71354 23.6374 6.40918 23.6816C6.10482 23.7314 5.82812 23.665 5.5791 23.4824Z" fill="#999999"/>
</svg>
