<svg width="176" height="176" viewBox="0 0 176 176" fill="none" xmlns="http://www.w3.org/2000/svg">
<rect width="176" height="176" rx="9" fill="#E7E7E7"/>
<g opacity="0.05">
<path d="M108.357 37.1541C103.188 31.5733 95.9683 28.5 87.9996 28.5C79.9883 28.5 72.7447 31.5547 67.5996 37.1009C62.3986 42.7083 59.8646 50.3291 60.4596 58.5581C61.6389 74.7931 73.9932 88 87.9996 88C102.006 88 114.339 74.7958 115.537 58.5634C116.14 50.4087 113.59 42.8039 108.357 37.1541ZM134.75 147.5H41.2496C40.0257 147.516 38.8137 147.259 37.7018 146.747C36.5898 146.236 35.6058 145.483 34.8214 144.544C33.0949 142.48 32.3989 139.661 32.9143 136.811C35.1561 124.375 42.1527 113.928 53.1496 106.594C62.9193 100.083 75.2947 96.5 87.9996 96.5C100.704 96.5 113.08 100.086 122.85 106.594C133.846 113.925 140.843 124.372 143.085 136.809C143.6 139.659 142.904 142.477 141.178 144.541C140.394 145.481 139.41 146.234 138.298 146.746C137.186 147.258 135.974 147.516 134.75 147.5Z" fill="black"/>
</g>
<rect x="128" y="128" width="40" height="40" rx="4" fill="white"/>
<path fill-rule="evenodd" clip-rule="evenodd" d="M137.846 145.877C137.846 140.779 141.978 136.646 147.076 136.646H149.212C154.15 136.646 158.153 140.649 158.153 145.588V145.844C158.153 147.105 157.851 148.347 157.272 149.467C156.818 150.345 156.204 151.129 155.46 151.779L153.509 153.486L147.076 159.434V155.108C141.978 155.108 137.846 150.975 137.846 145.877ZM147.076 138.492C142.998 138.492 139.692 141.799 139.692 145.877C139.692 149.955 142.998 153.262 147.076 153.262H148.923V155.213L152.274 152.114L154.245 150.39C154.814 149.892 155.285 149.291 155.632 148.619C156.076 147.761 156.307 146.81 156.307 145.844V145.588C156.307 141.669 153.131 138.492 149.212 138.492H147.076Z" fill="#474747"/>
</svg>
