<svg width="24" height="24" viewBox="0 0 24 24" fill="none" xmlns="http://www.w3.org/2000/svg">
<path fill-rule="evenodd" clip-rule="evenodd" d="M3.96232 3.99071C5.67276 2.26398 7.99449 1.2923 10.4172 1.2923C12.84 1.2923 15.1617 2.26398 16.8721 3.99071C18.5823 5.71715 19.5415 8.05685 19.5415 10.4947C19.5415 12.6247 18.8092 14.6799 17.4835 16.3165L22.2565 21.135C22.6152 21.4972 22.6125 22.0816 22.2503 22.4404C21.8881 22.7992 21.3036 22.7964 20.9449 22.4342L16.1829 17.6269C14.5628 18.9592 12.5284 19.697 10.4172 19.697C7.99449 19.697 5.67276 18.7254 3.96232 16.9986C2.25217 15.2722 1.29297 12.9325 1.29297 10.4947C1.29297 8.05685 2.25217 5.71715 3.96232 3.99071ZM10.4172 3.13845C8.48979 3.13845 6.63952 3.91133 5.27392 5.28994C3.90803 6.66884 3.13912 8.54087 3.13912 10.4947C3.13912 12.4485 3.90803 14.3205 5.27392 15.6994C6.63952 17.078 8.48979 17.8509 10.4172 17.8509C12.3447 17.8509 14.1949 17.078 15.5605 15.6994C16.9264 14.3205 17.6953 12.4485 17.6953 10.4947C17.6953 8.54087 16.9264 6.66884 15.5605 5.28994C14.1949 3.91133 12.3447 3.13845 10.4172 3.13845Z" fill="white"/>
</svg>
